<svg width="231" height="380" viewBox="0 0 231 380" fill="none" xmlns="http://www.w3.org/2000/svg">
<path d="M69.7656 360.49C75.2427 361.272 98.5226 365.49 115.332 368.114C117.902 368.516 120.211 368.962 118.904 368.68C104.779 365.626 91.8068 358.392 83.6986 353.371C80.9428 351.665 80.0771 342.908 80.3065 332.419C80.3944 328.4 83.377 327.364 86.812 326.476C101.042 322.797 111.004 325.208 118.577 323.194C121.566 322.4 120.775 315.979 119.518 309.635C117.333 298.604 105.594 290.793 97.4945 283.961C93.183 280.325 94.5927 273.799 96.2528 268.907C98.7248 261.623 105.368 253.848 109.779 248.504C110.806 247.259 104.206 251.905 101.243 255.311C95.0866 262.386 96.701 273.391 97.336 279.826C97.6542 283.052 101.698 285.85 106.535 288.721C112.159 292.059 118.414 291.106 122.696 290.012C127.369 288.819 131.112 284.944 133.666 280.641C136.089 276.56 133.384 270.833 130.589 265.975C125.837 257.717 115.12 255.908 112.586 255.36C103.868 253.475 134.181 253.579 141.977 248.76C143.739 247.671 143.569 244.267 143.308 241.759C142.063 229.782 125.177 224.423 117.166 222.076C113.695 221.059 109.621 219.429 106.511 218.756C105.018 218.433 127.09 218.387 155.096 216.337C177.891 214.669 187.196 213.08 190.114 213.711C197.404 215.287 169.894 216.616 155.537 219.195C132.573 223.32 109.566 223.457 102.952 223.061C101.073 222.949 99.7393 220.164 99.3213 218.242C97.5756 210.218 110.414 198.597 118.598 190.771C120.746 188.717 125.163 188.351 127.798 188.489C130.433 188.626 131.719 190.109 132.708 192.148C134.826 202.135 132.602 216.195 127.381 227.284C125.63 229.753 123.432 232.491 120.665 237.636" stroke="#FD0000" stroke-width="2" stroke-linecap="round"/>
<path d="M110.39 178.221C111.157 178.387 119.609 180.214 132.873 181.676C138.057 182.248 140.196 179.043 141.727 176.721C144.556 172.428 144.642 166.192 143.428 159.651C142.494 154.618 138.973 151.155 135.958 148.27C132.818 145.265 127.604 147.456 124.478 148.8C118.758 156.459 114.071 166.823 114.219 171.711C114.865 174.296 116.669 177.096 122.267 179.572" stroke="#FD0000" stroke-width="2" stroke-linecap="round"/>
<path d="M137.191 149.942C139.225 147.961 144.713 145.095 147.94 142.355C150.992 139.763 150.299 132.539 147.578 123.652C144.634 114.035 136.423 110.434 132.917 108.867C131.237 108.116 129.794 107.382 132.857 107.035C143.476 105.828 153.175 105.952 156.235 103.985C157.679 103.057 158.227 101.385 158.461 99.4037C158.982 94.9847 154.508 88.8138 147.35 82.6056C141.339 77.3918 132.772 76.7767 127.003 77.1478C125.53 77.2426 127.372 78.8461 129.276 79.4706C138.466 82.4858 150.026 77.2943 156.334 72.5737C157.929 71.38 159.321 69.9828 160.251 68.5531C161.181 67.1235 161.513 65.5889 161.124 63.6734C159.194 54.1728 150.739 49.8494 147.316 47.8926C145.718 46.9788 144.112 46.786 143.073 47.766C141.536 51.0479 141.593 56.3538 143.66 62.6661C145.157 66.044 147.562 69.7767 152.114 75.2878" stroke="#FD0000" stroke-width="2" stroke-linecap="round"/>
</svg>
